<?xml version="1.0" encoding="utf-8"?>
<!-- Generator: Adobe Illustrator 19.2.1, SVG Export Plug-In . SVG Version: 6.00 Build 0)  -->
<svg version="1.1" id="Layer_1" xmlns="http://www.w3.org/2000/svg" xmlns:xlink="http://www.w3.org/1999/xlink" x="0px" y="0px"
	 viewBox="0 0 525 525" style="enable-background:new 0 0 525 525;" xml:space="preserve">
<style type="text/css">
	.st0{fill:#BE1622;}
</style>
<g>
	<path class="st0" d="M442.6,84.4C394.4,36.2,330.3,9.7,262.2,9.7S129.9,36.2,81.7,84.4C33.5,132.6,6.9,196.7,6.9,264.9
		s26.5,132.3,74.8,180.5c48.2,48.2,112.3,74.8,180.5,74.8s132.3-26.5,180.5-74.8c48.2-48.2,74.8-112.3,74.8-180.5
		S490.8,132.6,442.6,84.4z M262.2,506.1c-133,0-241.2-108.2-241.2-241.2c0-133,108.2-241.2,241.2-241.2s241.2,108.2,241.2,241.2
		C503.4,397.9,395.2,506.1,262.2,506.1z"/>
	<path class="st0" d="M350.8,343.5L350.8,343.5l-62.7-62.8c2.7-4.5,4.3-9.9,4.3-15.6c0-14.3-9.9-26.2-23.2-29.4V74.7
		c0.1-0.5,0.2-1.1,0.2-1.7c0-3.9-3.1-7-7-7s-7,3.1-7,7h-0.2v162.8c-13.3,3.2-23.2,15.1-23.2,29.4c0,16.7,13.6,30.2,30.2,30.2
		c5.9,0,11.4-1.7,16.1-4.7l62.7,62.7l0,0c1.3,1.6,3.2,2.6,5.4,2.6c3.9,0,7-3.1,7-7C353.4,346.8,352.4,344.8,350.8,343.5z
		 M245.9,265.2c0-8.9,7.3-16.2,16.2-16.2c8.9,0,16.2,7.3,16.2,16.2c0,8.9-7.3,16.2-16.2,16.2C253.2,281.4,245.9,274.1,245.9,265.2z"
		/>
</g>
</svg>
